<mxfile host="Electron" agent="Mozilla/5.0 (Windows NT 10.0; Win64; x64) AppleWebKit/537.36 (KHTML, like Gecko) draw.io/25.0.2 Chrome/128.0.6613.186 Electron/32.2.5 Safari/537.36" version="25.0.2">
  <diagram name="Page-1" id="kOurHQ7dUZ6u-fdU3AdX">
    <mxGraphModel dx="821" dy="531" grid="1" gridSize="10" guides="1" tooltips="1" connect="1" arrows="1" fold="1" page="1" pageScale="1" pageWidth="570" pageHeight="940" math="0" shadow="0">
      <root>
        <mxCell id="0" />
        <mxCell id="1" parent="0" />
        <mxCell id="ODHws7L-mMITOsE462_n-108" value="" style="group" vertex="1" connectable="0" parent="1">
          <mxGeometry x="20" y="20" width="530" height="890" as="geometry" />
        </mxCell>
        <mxCell id="ODHws7L-mMITOsE462_n-1" value="Symboles" style="swimlane;whiteSpace=wrap;html=1;" vertex="1" parent="ODHws7L-mMITOsE462_n-108">
          <mxGeometry width="530" height="890" as="geometry" />
        </mxCell>
        <mxCell id="ODHws7L-mMITOsE462_n-2" value="&lt;font style=&quot;font-size: 11px;&quot;&gt;Object Name [state]&lt;/font&gt;" style="rounded=0;whiteSpace=wrap;html=1;align=center;fillColor=none;" vertex="1" parent="ODHws7L-mMITOsE462_n-1">
          <mxGeometry x="369" y="40" width="100" height="30" as="geometry" />
        </mxCell>
        <mxCell id="ODHws7L-mMITOsE462_n-8" value="&lt;font style=&quot;font-size: 14px;&quot;&gt;Activity Name&lt;/font&gt;" style="rounded=1;whiteSpace=wrap;html=1;fillColor=none;" vertex="1" parent="ODHws7L-mMITOsE462_n-1">
          <mxGeometry x="369" y="90" width="100" height="30" as="geometry" />
        </mxCell>
        <mxCell id="ODHws7L-mMITOsE462_n-10" style="edgeStyle=orthogonalEdgeStyle;rounded=0;orthogonalLoop=1;jettySize=auto;html=1;endArrow=open;endFill=0;" edge="1" parent="ODHws7L-mMITOsE462_n-1" source="ODHws7L-mMITOsE462_n-9">
          <mxGeometry relative="1" as="geometry">
            <mxPoint x="480" y="270" as="targetPoint" />
          </mxGeometry>
        </mxCell>
        <mxCell id="ODHws7L-mMITOsE462_n-11" style="edgeStyle=orthogonalEdgeStyle;rounded=0;orthogonalLoop=1;jettySize=auto;html=1;endArrow=open;endFill=0;" edge="1" parent="ODHws7L-mMITOsE462_n-1" source="ODHws7L-mMITOsE462_n-9">
          <mxGeometry relative="1" as="geometry">
            <mxPoint x="340" y="270" as="targetPoint" />
          </mxGeometry>
        </mxCell>
        <mxCell id="ODHws7L-mMITOsE462_n-16" value="&lt;b&gt;Rectangle &lt;/b&gt;represent an object labeled with&lt;div&gt;its name and state between [ ]&lt;/div&gt;" style="text;html=1;align=left;verticalAlign=top;whiteSpace=wrap;rounded=0;" vertex="1" parent="ODHws7L-mMITOsE462_n-1">
          <mxGeometry x="23" y="45" width="237" height="35" as="geometry" />
        </mxCell>
        <mxCell id="ODHws7L-mMITOsE462_n-17" value="&lt;b&gt;Rounded Rectangle &lt;/b&gt;represent an activity" style="text;html=1;align=left;verticalAlign=top;whiteSpace=wrap;rounded=0;" vertex="1" parent="ODHws7L-mMITOsE462_n-1">
          <mxGeometry x="23" y="95" width="237" height="20" as="geometry" />
        </mxCell>
        <mxCell id="ODHws7L-mMITOsE462_n-19" value="To link between activities or any entity&amp;nbsp;&lt;span style=&quot;background-color: initial;&quot;&gt;we use &lt;/span&gt;&lt;b style=&quot;background-color: initial;&quot;&gt;solid arrow line&lt;/b&gt;" style="text;html=1;align=left;verticalAlign=top;whiteSpace=wrap;rounded=0;" vertex="1" parent="ODHws7L-mMITOsE462_n-1">
          <mxGeometry x="23" y="150" width="237" height="40" as="geometry" />
        </mxCell>
        <mxCell id="ODHws7L-mMITOsE462_n-27" value="&lt;b&gt;Diamond&lt;/b&gt; can represent a conditional statement , the if on the left side and else on right side" style="text;html=1;align=left;verticalAlign=top;whiteSpace=wrap;rounded=0;" vertex="1" parent="ODHws7L-mMITOsE462_n-1">
          <mxGeometry x="23" y="221" width="237" height="49" as="geometry" />
        </mxCell>
        <mxCell id="ODHws7L-mMITOsE462_n-28" value="" style="rhombus;whiteSpace=wrap;html=1;fillColor=none;" vertex="1" parent="ODHws7L-mMITOsE462_n-1">
          <mxGeometry x="390" y="330" width="45" height="40" as="geometry" />
        </mxCell>
        <mxCell id="ODHws7L-mMITOsE462_n-29" value="" style="endArrow=open;endFill=1;endSize=8;html=1;rounded=0;entryX=0;entryY=0.5;entryDx=0;entryDy=0;" edge="1" parent="ODHws7L-mMITOsE462_n-1">
          <mxGeometry width="160" relative="1" as="geometry">
            <mxPoint x="340" y="350" as="sourcePoint" />
            <mxPoint x="390" y="349.81" as="targetPoint" />
          </mxGeometry>
        </mxCell>
        <mxCell id="ODHws7L-mMITOsE462_n-31" value="" style="endArrow=open;endFill=1;endSize=8;html=1;rounded=0;entryX=0.5;entryY=0;entryDx=0;entryDy=0;" edge="1" parent="ODHws7L-mMITOsE462_n-1" target="ODHws7L-mMITOsE462_n-28">
          <mxGeometry width="160" relative="1" as="geometry">
            <mxPoint x="413" y="292" as="sourcePoint" />
            <mxPoint x="412.35" y="309.5" as="targetPoint" />
            <Array as="points" />
          </mxGeometry>
        </mxCell>
        <mxCell id="ODHws7L-mMITOsE462_n-33" value="&lt;b&gt;Diamond&lt;/b&gt; can be a point join between the entities&amp;nbsp;" style="text;html=1;align=left;verticalAlign=top;whiteSpace=wrap;rounded=0;" vertex="1" parent="ODHws7L-mMITOsE462_n-1">
          <mxGeometry x="23" y="330" width="237" height="39" as="geometry" />
        </mxCell>
        <mxCell id="ODHws7L-mMITOsE462_n-34" value="" style="verticalLabelPosition=bottom;verticalAlign=top;html=1;shape=mxgraph.flowchart.collate;fillColor=none;" vertex="1" parent="ODHws7L-mMITOsE462_n-1">
          <mxGeometry x="392.5" y="430" width="40" height="30" as="geometry" />
        </mxCell>
        <mxCell id="ODHws7L-mMITOsE462_n-38" value="&lt;b&gt;Hourglass shape&lt;/b&gt;&amp;nbsp;wait until a certain condition is met to proceed to next activity&amp;nbsp;" style="text;html=1;align=left;verticalAlign=top;whiteSpace=wrap;rounded=0;" vertex="1" parent="ODHws7L-mMITOsE462_n-1">
          <mxGeometry x="23" y="421" width="237" height="39" as="geometry" />
        </mxCell>
        <mxCell id="ODHws7L-mMITOsE462_n-41" value="" style="line;strokeWidth=3;fillColor=none;align=left;verticalAlign=middle;spacingTop=-1;spacingLeft=3;spacingRight=3;rotatable=0;labelPosition=right;points=[];portConstraint=eastwest;strokeColor=inherit;" vertex="1" parent="ODHws7L-mMITOsE462_n-1">
          <mxGeometry x="342.5" y="621" width="140" height="8" as="geometry" />
        </mxCell>
        <mxCell id="ODHws7L-mMITOsE462_n-40" value="" style="line;strokeWidth=3;fillColor=none;align=left;verticalAlign=middle;spacingTop=-1;spacingLeft=3;spacingRight=3;rotatable=0;labelPosition=right;points=[];portConstraint=eastwest;strokeColor=inherit;" vertex="1" parent="ODHws7L-mMITOsE462_n-1">
          <mxGeometry x="342.5" y="540" width="140" height="8" as="geometry" />
        </mxCell>
        <mxCell id="ODHws7L-mMITOsE462_n-44" value="&lt;font style=&quot;font-size: 9px;&quot;&gt;Activity Name 1&lt;/font&gt;" style="rounded=1;whiteSpace=wrap;html=1;fillColor=none;" vertex="1" parent="ODHws7L-mMITOsE462_n-1">
          <mxGeometry x="326.5" y="569" width="65" height="20" as="geometry" />
        </mxCell>
        <mxCell id="ODHws7L-mMITOsE462_n-45" value="&lt;font style=&quot;font-size: 9px;&quot;&gt;Activity Name 2&lt;/font&gt;" style="rounded=1;whiteSpace=wrap;html=1;fillColor=none;" vertex="1" parent="ODHws7L-mMITOsE462_n-1">
          <mxGeometry x="421.5" y="569" width="65" height="20" as="geometry" />
        </mxCell>
        <mxCell id="ODHws7L-mMITOsE462_n-42" value="" style="endArrow=open;endFill=1;endSize=8;html=1;rounded=0;exitX=0.606;exitY=0.558;exitDx=0;exitDy=0;exitPerimeter=0;entryX=0.5;entryY=0;entryDx=0;entryDy=0;" edge="1" parent="ODHws7L-mMITOsE462_n-1" source="ODHws7L-mMITOsE462_n-40" target="ODHws7L-mMITOsE462_n-45">
          <mxGeometry width="160" relative="1" as="geometry">
            <mxPoint x="382" y="386" as="sourcePoint" />
            <mxPoint x="470" y="570" as="targetPoint" />
          </mxGeometry>
        </mxCell>
        <mxCell id="ODHws7L-mMITOsE462_n-46" value="" style="endArrow=open;endFill=1;endSize=8;html=1;rounded=0;exitX=0.395;exitY=0.999;exitDx=0;exitDy=0;exitPerimeter=0;entryX=0.421;entryY=0.635;entryDx=0;entryDy=0;entryPerimeter=0;" edge="1" parent="ODHws7L-mMITOsE462_n-1">
          <mxGeometry width="160" relative="1" as="geometry">
            <mxPoint x="351.17499999999995" y="589" as="sourcePoint" />
            <mxPoint x="400.43999999999994" y="624.0799999999999" as="targetPoint" />
          </mxGeometry>
        </mxCell>
        <mxCell id="ODHws7L-mMITOsE462_n-50" value="&lt;font style=&quot;font-size: 7px;&quot;&gt;Fork&amp;nbsp;&lt;/font&gt;" style="text;html=1;align=center;verticalAlign=middle;whiteSpace=wrap;rounded=0;" vertex="1" parent="ODHws7L-mMITOsE462_n-1">
          <mxGeometry x="482.5" y="540" width="40" height="10" as="geometry" />
        </mxCell>
        <mxCell id="ODHws7L-mMITOsE462_n-53" value="&lt;span style=&quot;font-size: 7px;&quot;&gt;Join&lt;/span&gt;" style="text;html=1;align=center;verticalAlign=middle;whiteSpace=wrap;rounded=0;" vertex="1" parent="ODHws7L-mMITOsE462_n-1">
          <mxGeometry x="482.5" y="619" width="40" height="10" as="geometry" />
        </mxCell>
        <mxCell id="ODHws7L-mMITOsE462_n-54" value="To represent &lt;strong&gt;parallelism&lt;/strong&gt; in an activity diagram, a &lt;strong&gt;fork&lt;/strong&gt; (thick line) splits the flow into parallel activities, and a &lt;strong&gt;join&lt;/strong&gt; (another thick line) merges the parallel activities back into a single flow." style="text;html=1;align=left;verticalAlign=top;whiteSpace=wrap;rounded=0;" vertex="1" parent="ODHws7L-mMITOsE462_n-1">
          <mxGeometry x="23" y="546.5" width="237" height="83.5" as="geometry" />
        </mxCell>
        <mxCell id="ODHws7L-mMITOsE462_n-77" value="&lt;font style=&quot;font-size: 9px;&quot;&gt;receive signalName&lt;/font&gt;" style="shape=mxgraph.sysml.accEvent;flipH=0;whiteSpace=wrap;align=center;html=1;fillColor=none;" vertex="1" parent="ODHws7L-mMITOsE462_n-1">
          <mxGeometry x="348.5" y="716" width="107.5" height="30" as="geometry" />
        </mxCell>
        <mxCell id="ODHws7L-mMITOsE462_n-78" value="&lt;font style=&quot;font-size: 10px;&quot;&gt;send signalName&lt;/font&gt;" style="html=1;shadow=0;dashed=0;align=center;verticalAlign=middle;shape=mxgraph.arrows2.arrow;dy=0;dx=10;notch=0;fillColor=none;" vertex="1" parent="ODHws7L-mMITOsE462_n-1">
          <mxGeometry x="356" y="660" width="102.5" height="30" as="geometry" />
        </mxCell>
        <mxCell id="ODHws7L-mMITOsE462_n-83" value="" style="ellipse;whiteSpace=wrap;html=1;aspect=fixed;fillColor=#000000;" vertex="1" parent="ODHws7L-mMITOsE462_n-1">
          <mxGeometry x="388.5" y="784" width="22" height="22" as="geometry" />
        </mxCell>
        <mxCell id="ODHws7L-mMITOsE462_n-86" value="To send signal" style="text;html=1;align=left;verticalAlign=top;whiteSpace=wrap;rounded=0;" vertex="1" parent="ODHws7L-mMITOsE462_n-1">
          <mxGeometry x="23" y="660" width="237" height="39" as="geometry" />
        </mxCell>
        <mxCell id="ODHws7L-mMITOsE462_n-87" value="To receive signal" style="text;html=1;align=left;verticalAlign=top;whiteSpace=wrap;rounded=0;" vertex="1" parent="ODHws7L-mMITOsE462_n-1">
          <mxGeometry x="23" y="711" width="237" height="39" as="geometry" />
        </mxCell>
        <mxCell id="ODHws7L-mMITOsE462_n-88" value="&lt;b&gt;Filled circle&lt;/b&gt; represent the start of the activity diagram or a macro" style="text;html=1;align=left;verticalAlign=top;whiteSpace=wrap;rounded=0;" vertex="1" parent="ODHws7L-mMITOsE462_n-1">
          <mxGeometry x="23" y="775.5" width="237" height="39" as="geometry" />
        </mxCell>
        <mxCell id="ODHws7L-mMITOsE462_n-89" value="&lt;b&gt;Circle with inner filled circle&lt;/b&gt;&amp;nbsp;represent the end of the activity diagram or a macro" style="text;html=1;align=left;verticalAlign=top;whiteSpace=wrap;rounded=0;" vertex="1" parent="ODHws7L-mMITOsE462_n-1">
          <mxGeometry x="23" y="831.5" width="237" height="39" as="geometry" />
        </mxCell>
        <mxCell id="ODHws7L-mMITOsE462_n-95" value="" style="ellipse;html=1;shape=endState;fillColor=#000000;strokeColor=#0008ff;perimeterSpacing=18;strokeWidth=1;" vertex="1" parent="ODHws7L-mMITOsE462_n-1">
          <mxGeometry x="387.5" y="840" width="23" height="22" as="geometry" />
        </mxCell>
        <mxCell id="ODHws7L-mMITOsE462_n-106" value="" style="group" vertex="1" connectable="0" parent="ODHws7L-mMITOsE462_n-1">
          <mxGeometry x="335" y="221" width="100" height="48" as="geometry" />
        </mxCell>
        <mxCell id="ODHws7L-mMITOsE462_n-9" value="" style="rhombus;whiteSpace=wrap;html=1;fillColor=none;" vertex="1" parent="ODHws7L-mMITOsE462_n-106">
          <mxGeometry x="55" y="8" width="45" height="40" as="geometry" />
        </mxCell>
        <mxCell id="ODHws7L-mMITOsE462_n-21" value="&lt;font style=&quot;font-size: 11px;&quot;&gt;if condition&lt;/font&gt;" style="text;html=1;align=center;verticalAlign=middle;whiteSpace=wrap;rounded=0;" vertex="1" parent="ODHws7L-mMITOsE462_n-106">
          <mxGeometry width="60" height="30" as="geometry" />
        </mxCell>
        <mxCell id="ODHws7L-mMITOsE462_n-13" value="" style="endArrow=open;endFill=1;endSize=8;html=1;rounded=0;" edge="1" parent="ODHws7L-mMITOsE462_n-108">
          <mxGeometry width="160" relative="1" as="geometry">
            <mxPoint x="372" y="172" as="sourcePoint" />
            <mxPoint x="462" y="172" as="targetPoint" />
          </mxGeometry>
        </mxCell>
        <mxCell id="ODHws7L-mMITOsE462_n-20" value="" style="endArrow=open;endFill=1;endSize=8;html=1;rounded=0;entryX=0.5;entryY=0;entryDx=0;entryDy=0;" edge="1" parent="ODHws7L-mMITOsE462_n-108" target="ODHws7L-mMITOsE462_n-9">
          <mxGeometry width="160" relative="1" as="geometry">
            <mxPoint x="413" y="200" as="sourcePoint" />
            <mxPoint x="472" y="182" as="targetPoint" />
          </mxGeometry>
        </mxCell>
        <mxCell id="ODHws7L-mMITOsE462_n-26" value="&lt;font style=&quot;font-size: 11px;&quot;&gt;Else&lt;/font&gt;" style="text;html=1;align=center;verticalAlign=middle;whiteSpace=wrap;rounded=0;" vertex="1" parent="ODHws7L-mMITOsE462_n-108">
          <mxGeometry x="440" y="226" width="30" height="20" as="geometry" />
        </mxCell>
        <mxCell id="ODHws7L-mMITOsE462_n-30" value="" style="endArrow=open;endFill=1;endSize=8;html=1;rounded=0;entryX=1;entryY=0.5;entryDx=0;entryDy=0;" edge="1" parent="ODHws7L-mMITOsE462_n-108" target="ODHws7L-mMITOsE462_n-28">
          <mxGeometry width="160" relative="1" as="geometry">
            <mxPoint x="480" y="350" as="sourcePoint" />
            <mxPoint x="400" y="359.81" as="targetPoint" />
          </mxGeometry>
        </mxCell>
        <mxCell id="ODHws7L-mMITOsE462_n-35" value="" style="endArrow=open;endFill=1;endSize=8;html=1;rounded=0;entryX=0.5;entryY=0;entryDx=0;entryDy=0;" edge="1" parent="ODHws7L-mMITOsE462_n-108">
          <mxGeometry width="160" relative="1" as="geometry">
            <mxPoint x="412" y="392" as="sourcePoint" />
            <mxPoint x="412" y="430" as="targetPoint" />
            <Array as="points" />
          </mxGeometry>
        </mxCell>
        <mxCell id="ODHws7L-mMITOsE462_n-36" value="" style="endArrow=open;endFill=1;endSize=8;html=1;rounded=0;" edge="1" parent="ODHws7L-mMITOsE462_n-108">
          <mxGeometry width="160" relative="1" as="geometry">
            <mxPoint x="412" y="460" as="sourcePoint" />
            <mxPoint x="412" y="490" as="targetPoint" />
            <Array as="points" />
          </mxGeometry>
        </mxCell>
        <mxCell id="ODHws7L-mMITOsE462_n-37" value="Condition" style="text;html=1;align=center;verticalAlign=middle;whiteSpace=wrap;rounded=0;" vertex="1" parent="ODHws7L-mMITOsE462_n-108">
          <mxGeometry x="433" y="435" width="60" height="19" as="geometry" />
        </mxCell>
        <mxCell id="ODHws7L-mMITOsE462_n-43" value="" style="endArrow=open;endFill=1;endSize=8;html=1;rounded=0;exitX=0.418;exitY=0.827;exitDx=0;exitDy=0;exitPerimeter=0;entryX=0.609;entryY=0.013;entryDx=0;entryDy=0;entryPerimeter=0;" edge="1" parent="ODHws7L-mMITOsE462_n-108" target="ODHws7L-mMITOsE462_n-44">
          <mxGeometry width="160" relative="1" as="geometry">
            <mxPoint x="396.02" y="544.6160000000001" as="sourcePoint" />
            <mxPoint x="355" y="568" as="targetPoint" />
          </mxGeometry>
        </mxCell>
        <mxCell id="ODHws7L-mMITOsE462_n-49" value="" style="endArrow=open;endFill=1;endSize=8;html=1;rounded=0;exitX=0.395;exitY=0.999;exitDx=0;exitDy=0;exitPerimeter=0;entryX=0.421;entryY=0.635;entryDx=0;entryDy=0;entryPerimeter=0;" edge="1" parent="ODHws7L-mMITOsE462_n-108">
          <mxGeometry width="160" relative="1" as="geometry">
            <mxPoint x="474" y="589" as="sourcePoint" />
            <mxPoint x="425" y="624" as="targetPoint" />
          </mxGeometry>
        </mxCell>
        <mxCell id="ODHws7L-mMITOsE462_n-64" value="" style="endArrow=none;html=1;rounded=0;" edge="1" parent="ODHws7L-mMITOsE462_n-108">
          <mxGeometry width="50" height="50" relative="1" as="geometry">
            <mxPoint x="390" y="740" as="sourcePoint" />
            <mxPoint x="390" y="740" as="targetPoint" />
          </mxGeometry>
        </mxCell>
      </root>
    </mxGraphModel>
  </diagram>
</mxfile>
